<?xml version="1.0" encoding="UTF-8" standalone="no"?>
<!-- Created with Inkscape (http://www.inkscape.org/) -->

<svg
   width="207.91922mm"
   height="78.009285mm"
   viewBox="0 0 207.91922 78.009285"
   version="1.1"
   id="svg5"
   inkscape:version="1.1.1 (eb90963e84, 2021-10-02)"
   sodipodi:docname="logo.svg"
   xmlns:inkscape="http://www.inkscape.org/namespaces/inkscape"
   xmlns:sodipodi="http://sodipodi.sourceforge.net/DTD/sodipodi-0.dtd"
   xmlns="http://www.w3.org/2000/svg"
   xmlns:svg="http://www.w3.org/2000/svg">
  <sodipodi:namedview
     id="namedview7"
     pagecolor="#ffffff"
     bordercolor="#666666"
     borderopacity="1.0"
     inkscape:pageshadow="2"
     inkscape:pageopacity="0.0"
     inkscape:pagecheckerboard="0"
     inkscape:document-units="mm"
     showgrid="false"
     showguides="true"
     inkscape:guide-bbox="true"
     inkscape:zoom="0.77771465"
     inkscape:cx="391.53178"
     inkscape:cy="320.16884"
     inkscape:window-width="2560"
     inkscape:window-height="1387"
     inkscape:window-x="1920"
     inkscape:window-y="27"
     inkscape:window-maximized="1"
     inkscape:current-layer="layer1">
    <sodipodi:guide
       position="104.46723,182.92844"
       orientation="1,0"
       id="guide15257" />
  </sodipodi:namedview>
  <defs
     id="defs2">
    <style
       id="style9">.cls-1,.cls-2{fill:#1d1d1b;}.cls-2{font-size:13px;font-family:AvenirNextLTPro-Regular, Avenir Next LT Pro;}.cls-3{letter-spacing:-0.03em;}.cls-4{letter-spacing:-0.02em;}.cls-5{letter-spacing:-0.1em;}.cls-6{letter-spacing:-0.01em;}</style>
  </defs>
  <g
     inkscape:label="Layer 1"
     inkscape:groupmode="layer"
     id="layer1"
     transform="translate(-1.255,-63.677902)">
    <g
       id="g95"
       transform="matrix(0.75240673,0,0,0.75240673,-4.0058771,90.673176)">
      <path
         class="cls-1"
         d="m 91.224653,14.531434 -2.33,-5.9000004 h -11.71 l -2.22,5.9000004 h -7.95 l 12.68,-30.22 h 7.09 l 12.549988,30.22 z m -8.11,-22.1500004 -3.84,10.37 h 7.62 z"
         id="path13" />
      <path
         class="cls-1"
         d="m 101.89465,14.531434 v -30.22 h 7.34 v 30.22 z"
         id="path15" />
      <path
         class="cls-1"
         d="M 180.89465,-9.7085664 V 14.411434 h -7.34 V -9.7085664 h -8.66 v -6.2699996 h 24.51 v 6.2699996 z"
         id="path17" />
      <path
         class="cls-1"
         d="m 205.47465,15.231434 c -8,0 -13,-5 -13,-12.2800004 V -15.978566 h 7.3 V 2.3514336 c 0,3.26 1.59,6.27 5.71,6.27 4.12,0 5.71,-3 5.71,-6.27 V -15.978566 h 7.34 V 2.9514336 c 0.03,7.3000004 -5.12,12.2800004 -13.06,12.2800004 z"
         id="path19" />
      <path
         class="cls-1"
         d="M 242.13465,-33.878565 V 33.221434 H 47.544653 V -33.878565 H 242.13465 m 2,-2 H 45.544653 V 35.221434 H 244.13465 Z"
         id="path21" />
      <path
         class="cls-1"
         d="m 124.27465,-2.0785664 a 2.23,2.23 0 1 1 -2.22,2.23000002 2.22,2.22 0 0 1 2.22,-2.23000002 m 0,-2 a 4.23,4.23 0 1 0 4.22,4.23000002 4.23,4.23 0 0 0 -4.22,-4.23000002 z"
         id="path23" />
      <path
         class="cls-1"
         d="m 131.79465,-14.368566 a 2.22,2.22 0 1 1 -2.22,2.22 2.22,2.22 0 0 1 2.22,-2.22 m 0,-2 a 4.22,4.22 0 1 0 4.22,4.22 4.22,4.22 0 0 0 -4.22,-4.22 z"
         id="path25" />
      <path
         class="cls-1"
         d="m 146.23465,9.2914336 a 2.22,2.22 0 1 1 -2.22,2.2200004 2.21,2.21 0 0 1 2.22,-2.2200004 m 0,-2 a 4.22,4.22 0 1 0 4.22,4.2200004 4.22,4.22 0 0 0 -4.22,-4.2200004 z"
         id="path27" />
      <path
         class="cls-1"
         d="m 145.95465,-15.978566 a 3.6,3.6 0 1 1 -3.59,3.6 3.6,3.6 0 0 1 3.59,-3.6 m 0,-2 a 5.6,5.6 0 1 0 5.6,5.6 5.6,5.6 0 0 0 -5.6,-5.6 z"
         id="path29" />
      <path
         class="cls-1"
         d="m 138.76465,-3.9285664 a 3.6,3.6 0 1 1 -3.6,3.60000002 3.6,3.6 0 0 1 3.6,-3.60000002 m 0,-2 a 5.6,5.6 0 1 0 5.6,5.60000002 5.6,5.6 0 0 0 -5.6,-5.60000002 z"
         id="path31" />
      <path
         class="cls-1"
         d="m 131.79465,8.1214336 a 3.6,3.6 0 1 1 -3.6,3.6000004 3.6,3.6 0 0 1 3.6,-3.6000004 m 0,-2 a 5.6,5.6 0 1 0 5.59,5.6000004 5.6,5.6 0 0 0 -5.59,-5.6000004 z"
         id="path33" />
      <path
         class="cls-1"
         d="m 153.67465,-2.4985664 a 2.65,2.65 0 1 1 -2.64,2.65000002 2.65,2.65 0 0 1 2.64,-2.65000002 m 0,-2 a 4.65,4.65 0 1 0 4.65,4.65000002 4.65,4.65 0 0 0 -4.65,-4.65000002 z"
         id="path35" />
      <rect
         class="cls-1"
         x="134.91467"
         y="-13.198566"
         width="5.8000002"
         height="1.99"
         id="rect37" />
      <rect
         class="cls-1"
         x="143.79466"
         y="-1.0385631"
         width="5.8000002"
         height="1.99"
         id="rect39" />
      <rect
         class="cls-1"
         x="125.09212"
         y="78.760017"
         width="1.99"
         height="5.8000002"
         transform="rotate(-35.08)"
         id="rect41" />
      <rect
         class="cls-1"
         x="100.48122"
         y="74.860458"
         width="1.99"
         height="5.8000002"
         transform="rotate(-35.08)"
         id="rect43" />
      <rect
         class="cls-1"
         x="136.80467"
         y="11.041437"
         width="5.8000002"
         height="1.99"
         id="rect45" />
      <text
         class="cls-2"
         id="text63"
         x="144.80286"
         y="51.367031"><tspan
           sodipodi:role="line"
           id="tspan5087"
           x="144.80286"
           y="51.367031"
           style="text-align:center;text-anchor:middle">Hochschulgruppe für Künstliche Intelligenz</tspan><tspan
           sodipodi:role="line"
           id="tspan5089"
           x="144.80286"
           y="67.617035"
           style="text-align:center;text-anchor:middle">der Technischen Universität Berlin</tspan></text>
    </g>
  </g>
</svg>
