<?xml version="1.0" encoding="UTF-8" standalone="no"?>
<!-- Created with Inkscape (http://www.inkscape.org/) -->

<svg
   width="190.01848mm"
   height="80.891205mm"
   viewBox="0 0 190.01848 80.891205"
   version="1.1"
   id="svg5"
   inkscape:version="1.1.1 (eb90963e84, 2021-10-02)"
   sodipodi:docname="AI_TU_logo.svg"
   xmlns:inkscape="http://www.inkscape.org/namespaces/inkscape"
   xmlns:sodipodi="http://sodipodi.sourceforge.net/DTD/sodipodi-0.dtd"
   xmlns="http://www.w3.org/2000/svg"
   xmlns:svg="http://www.w3.org/2000/svg">
  <sodipodi:namedview
     id="namedview7"
     pagecolor="#ffffff"
     bordercolor="#666666"
     borderopacity="1.0"
     inkscape:pageshadow="2"
     inkscape:pageopacity="0.0"
     inkscape:pagecheckerboard="0"
     inkscape:document-units="mm"
     showgrid="false"
     inkscape:zoom="0.77771465"
     inkscape:cx="349.09976"
     inkscape:cy="168.44224"
     inkscape:window-width="2560"
     inkscape:window-height="1387"
     inkscape:window-x="1920"
     inkscape:window-y="27"
     inkscape:window-maximized="1"
     inkscape:current-layer="g95" />
  <defs
     id="defs2">
    <style
       id="style9">.cls-1,.cls-2{fill:#1d1d1b;}.cls-2{font-size:13px;font-family:AvenirNextLTPro-Regular, Avenir Next LT Pro;}.cls-3{letter-spacing:-0.03em;}.cls-4{letter-spacing:-0.02em;}.cls-5{letter-spacing:-0.1em;}.cls-6{letter-spacing:-0.01em;}</style>
  </defs>
  <g
     inkscape:label="Layer 1"
     inkscape:groupmode="layer"
     id="layer1"
     transform="translate(-12.513504,-102.51737)">
    <g
       id="g95"
       transform="matrix(0.63591347,0,0,0.63591347,14.946379,131.40616)">
      <path
         class="cls-1"
         d="m 92.812899,14.804348 -2.33,-5.8999999 h -11.71 l -2.22,5.8999999 h -7.95 l 12.68,-30.22 h 7.09 l 12.549991,30.22 z m -8.11,-22.1499999 -3.84,10.37 h 7.62 z"
         id="path13" />
      <path
         class="cls-1"
         d="m 103.4829,14.804348 v -30.22 h 7.34 v 30.22 z"
         id="path15" />
      <path
         class="cls-1"
         d="M 182.4829,-9.4356519 V 14.684348 h -7.34 V -9.4356519 h -8.66 v -6.2700001 h 24.51 v 6.2700001 z"
         id="path17" />
      <path
         class="cls-1"
         d="m 207.0629,15.504348 c -8,0 -13,-5 -13,-12.2799999 V -15.705652 h 7.3 V 2.6243481 c 0,3.26 1.59,6.27 5.71,6.27 4.12,0 5.71,-3 5.71,-6.27 V -15.705652 h 7.34 V 3.2243481 c 0.03,7.2999999 -5.12,12.2799999 -13.06,12.2799999 z"
         id="path19" />
      <path
         class="cls-1"
         d="M 243.7229,-33.605651 V 33.494348 H 49.132899 V -33.605651 H 243.7229 m 2,-2 H 47.132899 V 35.494348 H 245.7229 Z"
         id="path21" />
      <path
         class="cls-1"
         d="m 125.8629,-1.8056519 a 2.23,2.23 0 1 1 -2.22,2.23000002 2.22,2.22 0 0 1 2.22,-2.23000002 m 0,-2 a 4.23,4.23 0 1 0 4.22,4.23000002 4.23,4.23 0 0 0 -4.22,-4.23000002 z"
         id="path23" />
      <path
         class="cls-1"
         d="m 133.3829,-14.095652 a 2.22,2.22 0 1 1 -2.22,2.22 2.22,2.22 0 0 1 2.22,-2.22 m 0,-2 a 4.22,4.22 0 1 0 4.22,4.22 4.22,4.22 0 0 0 -4.22,-4.22 z"
         id="path25" />
      <path
         class="cls-1"
         d="m 147.8229,9.5643481 a 2.22,2.22 0 1 1 -2.22,2.2199999 2.21,2.21 0 0 1 2.22,-2.2199999 m 0,-2 a 4.22,4.22 0 1 0 4.22,4.2199999 4.22,4.22 0 0 0 -4.22,-4.2199999 z"
         id="path27" />
      <path
         class="cls-1"
         d="m 147.5429,-15.705652 a 3.6,3.6 0 1 1 -3.59,3.6 3.6,3.6 0 0 1 3.59,-3.6 m 0,-2 a 5.6,5.6 0 1 0 5.6,5.6 5.6,5.6 0 0 0 -5.6,-5.6 z"
         id="path29" />
      <path
         class="cls-1"
         d="m 140.3529,-3.6556519 a 3.6,3.6 0 1 1 -3.6,3.60000002 3.6,3.6 0 0 1 3.6,-3.60000002 m 0,-2 a 5.6,5.6 0 1 0 5.6,5.60000002 5.6,5.6 0 0 0 -5.6,-5.60000002 z"
         id="path31" />
      <path
         class="cls-1"
         d="m 133.3829,8.3943481 a 3.6,3.6 0 1 1 -3.6,3.5999999 3.6,3.6 0 0 1 3.6,-3.5999999 m 0,-2 a 5.6,5.6 0 1 0 5.59,5.5999999 5.6,5.6 0 0 0 -5.59,-5.5999999 z"
         id="path33" />
      <path
         class="cls-1"
         d="m 155.2629,-2.2256519 a 2.65,2.65 0 1 1 -2.64,2.65000002 2.65,2.65 0 0 1 2.64,-2.65000002 m 0,-2 a 4.65,4.65 0 1 0 4.65,4.65000002 4.65,4.65 0 0 0 -4.65,-4.65000002 z"
         id="path35" />
      <rect
         class="cls-1"
         x="136.50291"
         y="-12.925652"
         width="5.8000002"
         height="1.99"
         id="rect37" />
      <rect
         class="cls-1"
         x="145.3829"
         y="-0.76564866"
         width="5.8000002"
         height="1.99"
         id="rect39" />
      <rect
         class="cls-1"
         x="126.23501"
         y="79.896156"
         width="1.99"
         height="5.8000002"
         transform="rotate(-35.08)"
         id="rect41" />
      <rect
         class="cls-1"
         x="101.62411"
         y="75.996597"
         width="1.99"
         height="5.8000002"
         transform="rotate(-35.08)"
         id="rect43" />
      <rect
         class="cls-1"
         x="138.39291"
         y="11.314352"
         width="5.8000002"
         height="1.99"
         id="rect45" />
      <text
         class="cls-2"
         id="text63"
         x="146.3911"
         y="51.639946"><tspan
           sodipodi:role="line"
           id="tspan5087"
           x="146.3911"
           y="51.639946"
           style="text-align:center;text-anchor:middle">Hochschulgruppe für Künstliche Intelligenz</tspan><tspan
           sodipodi:role="line"
           id="tspan5089"
           x="146.3911"
           y="67.889946"
           style="text-align:center;text-anchor:middle">der Technischen Universität Berlin</tspan></text>
    </g>
  </g>
</svg>
